<?xml version="1.0" encoding="UTF-8"?>
<!DOCTYPE svg PUBLIC "-//W3C//DTD SVG 1.1//EN" "http://www.w3.org/Graphics/SVG/1.1/DTD/svg11.dtd">
<svg xmlns="http://www.w3.org/2000/svg" version="1.1" width="892px" height="147px" style="shape-rendering:geometricPrecision; text-rendering:geometricPrecision; image-rendering:optimizeQuality; fill-rule:evenodd; clip-rule:evenodd" xmlns:xlink="http://www.w3.org/1999/xlink">
<g><path style="opacity:0.94" fill="#fefffe" d="M 67.5,-0.5 C 75.8333,-0.5 84.1667,-0.5 92.5,-0.5C 104.954,1.97566 116.121,7.30899 126,15.5C 130.881,29.2313 126.047,35.398 111.5,34C 89.9059,18.4373 68.5726,18.7706 47.5,35C 39.1667,35.6667 30.8333,35.6667 22.5,35C 20.6751,33.5341 20.1751,31.7008 21,29.5C 32.6927,13.572 48.1927,3.57196 67.5,-0.5 Z"/></g>
<g><path style="opacity:0.943" fill="#fefffe" d="M 179.5,1.5 C 209.519,-0.405468 233.019,10.9279 250,35.5C 250.896,38.025 250.396,40.1917 248.5,42C 240.5,42.6667 232.5,42.6667 224.5,42C 210.05,26.7404 192.716,22.0737 172.5,28C 162.845,32.09 154.678,38.2567 148,46.5C 133.544,64.6253 118.71,82.4586 103.5,100C 96.2956,103.15 90.4622,101.65 86,95.5C 84.9595,90.5602 85.6261,85.8935 88,81.5C 102.045,65.1241 115.711,48.4574 129,31.5C 138.1,20.2092 149.267,11.7092 162.5,6C 168.175,3.99977 173.842,2.49977 179.5,1.5 Z"/></g>
<g><path style="opacity:0.948" fill="#f7f8f7" d="M 668.5,33.5 C 686.919,30.8024 702.086,36.4691 714,50.5C 722.667,66.1667 722.667,81.8333 714,97.5C 702.172,111.67 687.005,117.17 668.5,114C 644.795,108.097 633.628,92.9302 635,68.5C 638.547,49.4547 649.713,37.7881 668.5,33.5 Z M 673.5,49.5 C 687.571,48.7823 696.738,55.1156 701,68.5C 702.812,83.3817 696.646,93.215 682.5,98C 665.323,99.1617 655.657,91.1617 653.5,74C 654.574,61.107 661.24,52.9404 673.5,49.5 Z"/></g>
<g><path style="opacity:0.956" fill="#f7f8f7" d="M 277.5,34.5 C 283.833,34.5 290.167,34.5 296.5,34.5C 296.5,44.8333 296.5,55.1667 296.5,65.5C 307.833,65.5 319.167,65.5 330.5,65.5C 330.5,55.1667 330.5,44.8333 330.5,34.5C 336.833,34.5 343.167,34.5 349.5,34.5C 349.5,60.8333 349.5,87.1667 349.5,113.5C 343.167,113.5 336.833,113.5 330.5,113.5C 330.5,102.833 330.5,92.1667 330.5,81.5C 319.167,81.5 307.833,81.5 296.5,81.5C 296.5,92.1667 296.5,102.833 296.5,113.5C 290.167,113.5 283.833,113.5 277.5,113.5C 277.5,87.1667 277.5,60.8333 277.5,34.5 Z"/></g>
<g><path style="opacity:0.948" fill="#f7f8f7" d="M 391.5,34.5 C 397.868,34.1703 404.202,34.5037 410.5,35.5C 422.402,61.2984 433.735,87.2984 444.5,113.5C 437.833,113.5 431.167,113.5 424.5,113.5C 422.707,108.125 420.707,102.791 418.5,97.5C 406.518,96.501 394.518,96.1677 382.5,96.5C 381.076,102.021 379.076,107.354 376.5,112.5C 369.833,113.833 363.167,113.833 356.5,112.5C 368.181,86.474 379.848,60.474 391.5,34.5 Z M 400.5,55.5 C 404.736,64.1949 408.403,73.1949 411.5,82.5C 404.137,82.8306 396.803,82.4973 389.5,81.5C 393.174,72.8043 396.841,64.1376 400.5,55.5 Z"/></g>
<g><path style="opacity:0.938" fill="#f7f8f7" d="M 451.5,34.5 C 467.21,34.0985 482.877,34.5985 498.5,36C 516.841,42.047 523.674,54.547 519,73.5C 516.08,79.92 511.58,84.92 505.5,88.5C 510.833,96.5 516.167,104.5 521.5,112.5C 514.858,113.664 508.192,113.831 501.5,113C 496.5,106 491.5,99 486.5,92C 481.511,91.5007 476.511,91.3341 471.5,91.5C 471.5,98.8333 471.5,106.167 471.5,113.5C 464.833,113.5 458.167,113.5 451.5,113.5C 451.5,87.1667 451.5,60.8333 451.5,34.5 Z M 471.5,50.5 C 479.238,50.1439 486.905,50.6439 494.5,52C 501.533,56.7733 503.033,62.9399 499,70.5C 497.457,72.3783 495.624,73.8783 493.5,75C 486.239,76.348 478.906,76.848 471.5,76.5C 471.5,67.8333 471.5,59.1667 471.5,50.5 Z"/></g>
<g><path style="opacity:0.94" fill="#f7f8f7" d="M 533.5,34.5 C 539.093,34.1934 544.593,34.5268 550,35.5C 559.333,50.8333 568.667,66.1667 578,81.5C 587.418,66.3322 596.585,50.9988 605.5,35.5C 611.128,34.5046 616.794,34.1712 622.5,34.5C 622.5,60.8333 622.5,87.1667 622.5,113.5C 616.5,113.5 610.5,113.5 604.5,113.5C 604.667,98.8295 604.5,84.1629 604,69.5C 596.833,81.1667 589.667,92.8333 582.5,104.5C 579.291,105.787 576.125,105.787 573,104.5C 566,93.1667 559,81.8333 552,70.5C 551.5,84.8295 551.333,99.1628 551.5,113.5C 545.5,113.5 539.5,113.5 533.5,113.5C 533.5,87.1667 533.5,60.8333 533.5,34.5 Z"/></g>
<g><path style="opacity:0.949" fill="#f7f8f7" d="M 733.5,34.5 C 738.844,34.334 744.177,34.5006 749.5,35C 761.667,49.8333 773.833,64.6667 786,79.5C 786.5,64.5037 786.667,49.5037 786.5,34.5C 792.833,34.5 799.167,34.5 805.5,34.5C 805.5,60.8333 805.5,87.1667 805.5,113.5C 800.156,113.666 794.823,113.499 789.5,113C 777.333,98.1667 765.167,83.3333 753,68.5C 752.5,83.4963 752.333,98.4963 752.5,113.5C 746.167,113.5 739.833,113.5 733.5,113.5C 733.5,87.1667 733.5,60.8333 733.5,34.5 Z"/></g>
<g><path style="opacity:0.937" fill="#f7f8f7" d="M 891.5,34.5 C 891.5,35.1667 891.5,35.8333 891.5,36.5C 881.441,52.269 871.608,68.269 862,84.5C 861.5,94.1609 861.334,103.828 861.5,113.5C 855.167,113.5 848.833,113.5 842.5,113.5C 842.666,104.161 842.5,94.8274 842,85.5C 831.619,68.7286 821.786,51.7286 812.5,34.5C 819.175,34.3337 825.842,34.5004 832.5,35C 839.041,45.917 845.708,56.7503 852.5,67.5C 859.292,56.7503 865.959,45.917 872.5,35C 878.825,34.5005 885.158,34.3338 891.5,34.5 Z"/></g>
<g><path style="opacity:0.959" fill="#fefffe" d="M -0.5,76.5 C -0.5,71.5 -0.5,66.5 -0.5,61.5C 8.77203,41.6678 23.4387,36.5012 43.5,46C 57.8157,59.8541 58.8157,74.5208 46.5,90C 30.9665,100.97 16.7998,99.4702 4,85.5C 2.19914,82.5625 0.699136,79.5625 -0.5,76.5 Z"/></g>
<g><path style="opacity:0.946" fill="#fefffe" d="M 167.5,43.5 C 180.723,43.5631 185.223,49.8964 181,62.5C 166,80.8333 151,99.1667 136,117.5C 108.994,146.017 77.8274,151.517 42.5,134C 32.3333,127.833 24.1667,119.667 18,109.5C 17.2571,107.559 17.4238,105.726 18.5,104C 26.8333,103.333 35.1667,103.333 43.5,104C 69.1378,126.719 93.9712,125.886 118,101.5C 132.48,84.5328 146.48,67.1994 160,49.5C 162.114,46.8792 164.614,44.8792 167.5,43.5 Z"/></g>
<g><path style="opacity:0.959" fill="#fefffe" d="M 234.5,48.5 C 259.313,47.8128 270.48,59.8128 268,84.5C 262.551,98.9817 252.051,105.482 236.5,104C 218.107,99.2424 210.607,87.4091 214,68.5C 217.444,58.2207 224.278,51.554 234.5,48.5 Z"/></g>
<g><path style="opacity:0.941" fill="#fefffe" d="M 197.5,146.5 C 191.167,146.5 184.833,146.5 178.5,146.5C 164.178,144.423 151.678,138.423 141,128.5C 137.57,118.435 141.07,112.435 151.5,110.5C 153.577,110.692 155.577,111.192 157.5,112C 171.752,122.706 187.418,125.372 204.5,120C 209.997,117.755 214.997,114.755 219.5,111C 228.5,110.333 237.5,110.333 246.5,111C 247.942,114.128 247.442,116.962 245,119.5C 232.416,134.371 216.583,143.371 197.5,146.5 Z"/></g>
</svg>
