<?xml version="1.0" encoding="UTF-8"?>
<svg xmlns="http://www.w3.org/2000/svg" 
     xmlns:xlink="http://www.w3.org/1999/xlink" 
     version="1.1" 
     width="200" 
     height="200" 
     viewBox="0 0 300 150" 
     style="shape-rendering:geometricPrecision; text-rendering:geometricPrecision; image-rendering:optimizeQuality; fill-rule:evenodd; clip-rule:evenodd">
  
  
  <g>
    <path style="opacity:0.94" fill="#fff" d="M 67.5,-0.5 C 75.8333,-0.5 84.1667,-0.5 92.5,-0.5C 104.954,1.97566 116.121,7.30899 126,15.5C 130.881,29.2313 126.047,35.398 111.5,34C 89.9059,18.4373 68.5726,18.7706 47.5,35C 39.1667,35.6667 30.8333,35.6667 22.5,35C 20.6751,33.5341 20.1751,31.7008 21,29.5C 32.6927,13.572 48.1927,3.57196 67.5,-0.5 Z"/>
  </g>

  
  <g>
    <path style="opacity:0.943" fill="#fff" d="M 179.5,1.5 C 209.519,-0.405468 233.019,10.9279 250,35.5C 250.896,38.025 250.396,40.1917 248.5,42C 240.5,42.6667 232.5,42.6667 224.5,42C 210.05,26.7404 192.716,22.0737 172.5,28C 162.845,32.09 154.678,38.2567 148,46.5C 133.544,64.6253 118.71,82.4586 103.5,100C 96.2956,103.15 90.4622,101.65 86,95.5C 84.9595,90.5602 85.6261,85.8935 88,81.5C 102.045,65.1241 115.711,48.4574 129,31.5C 138.1,20.2092 149.267,11.7092 162.5,6C 168.175,3.99977 173.842,2.49977 179.5,1.5 Z"/>
  </g>

  
  <g>
    <path style="opacity:0.959" fill="#fff" d="M -0.5,76.5 C -0.5,71.5 -0.5,66.5 -0.5,61.5C 8.77203,41.6678 23.4387,36.5012 43.5,46C 57.8157,59.8541 58.8157,74.5208 46.5,90C 30.9665,100.97 16.7998,99.4702 4,85.5C 2.19914,82.5625 0.699136,79.5625 -0.5,76.5 Z"/>
  </g>

  
  <g>
    <path style="opacity:0.946" fill="#fff" d="M 167.5,43.5 C 180.723,43.5631 185.223,49.8964 181,62.5C 166,80.8333 151,99.1667 136,117.5C 108.994,146.017 77.8274,151.517 42.5,134C 32.3333,127.833 24.1667,119.667 18,109.5C 17.2571,107.559 17.4238,105.726 18.5,104C 26.8333,103.333 35.1667,103.333 43.5,104C 69.1378,126.719 93.9712,125.886 118,101.5C 132.48,84.5328 146.48,67.1994 160,49.5C 162.114,46.8792 164.614,44.8792 167.5,43.5 Z"/>
  </g>

  
  <g>
    <path style="opacity:0.959" fill="#fff" d="M 234.5,48.5 C 259.313,47.8128 270.48,59.8128 268,84.5C 262.551,98.9817 252.051,105.482 236.5,104C 218.107,99.2424 210.607,87.4091 214,68.5C 217.444,58.2207 224.278,51.554 234.5,48.5 Z"/>
  </g>

  
  <g>
    <path style="opacity:0.941" fill="#fff" d="M 197.5,146.5 C 191.167,146.5 184.833,146.5 178.5,146.5C 164.178,144.423 151.678,138.423 141,128.5C 137.57,118.435 141.07,112.435 151.5,110.5C 153.577,110.692 155.577,111.192 157.5,112C 171.752,122.706 187.418,125.372 204.5,120C 209.997,117.755 214.997,114.755 219.5,111C 228.5,110.333 237.5,110.333 246.5,111C 247.942,114.128 247.442,116.962 245,119.5C 232.416,134.371 216.583,143.371 197.5,146.5 Z"/>
  </g>
</svg>
